<svg height="511pt" viewBox="0 0 511.98627 511" width="511pt" xmlns="http://www.w3.org/2000/svg"><path d="m478.449219 213.761719h-.597657v264.53125c.011719 6.792969-2.683593 13.308593-7.488281 18.113281-4.800781 4.800781-11.316406 7.496094-18.109375 7.488281h-392.535156c-6.792969.007813-13.308594-2.6875-18.109375-7.488281-4.804687-4.804688-7.5-11.320312-7.488281-18.113281v-264.53125h-.597656l217.941406-186.539063c2.804687-1.59375 6.238281-1.59375 9.042968 0l53.078126 45.398438zm0 0" fill="#c81e1e"/><path d="m452.851562 198.230469h-.597656v278.699219c.1875 6.972656-2.40625 13.730468-7.207031 18.789062-4.804687 5.058594-11.421875 8-18.394531 8.175781h-366.933594c-6.792969.007813-13.308594-2.6875-18.109375-7.488281-4.804687-4.804688-7.5-11.320312-7.488281-18.113281v-264.53125h-.597656l217.941406-186.539063c2.804687-1.59375 6.238281-1.59375 9.042968 0l53.078126 45.398438zm0 0" fill="#f44335"/><g fill-rule="evenodd"><path d="m380.574219 406.101562c-15.453125 25.261719-39.1875 44.378907-67.160157 54.101563-21.832031 7.804687-45.070312 10.886719-68.179687 9.046875-45.054687-3.242188-88.148437-23.640625-111.191406-56.152344-19.503907-28.058594-19.402344-65.316406.257812-93.269531 15.53125-23.464844 37.632813-43.945313 52.394531-67.753906 10.863282-15.933594 17.070313-34.578125 17.921876-53.84375.222656-10.042969-1.101563-20.058594-3.925782-29.695313-.511718-1.621094-1.109375-4.183594-1.792968-7.167968-1.289063-7.296876-4.367188-14.15625-8.960938-19.96875 26.632812 14.167968 52.0625 30.492187 76.03125 48.808593l.429688.34375c6.910156 6.226563 29.097656 29.097657 14.847656 54.441407-9.300782 16.554687-20.226563 51.371093 6.058594 60.332031 3.714843 1.269531 7.59375 1.988281 11.519531 2.132812 16.367187.125 31.136719-9.800781 37.203125-25.003906 4.3125-8.257813 5.230468-17.871094 2.5625-26.792969l.683594-.34375c41.382812 44.972656 70.738281 99.160156 41.300781 150.785156zm0 0" fill="#f57c00"/><path d="m354.972656 406.101562c-15.453125 25.261719-39.1875 44.378907-67.15625 54.101563-13.699218 5.003906-28.035156 8.050781-42.582031 9.046875-45.054687-3.242188-88.148437-23.640625-111.191406-56.152344-19.503907-28.058594-19.402344-65.316406.257812-93.269531 15.53125-23.464844 37.632813-43.945313 52.394531-67.753906 10.863282-15.933594 17.070313-34.578125 17.921876-53.84375.222656-10.042969-1.101563-20.058594-3.925782-29.695313-.511718-1.621094-1.109375-4.183594-1.792968-7.167968 14.421874 9.128906 28.160156 18.773437 41.472656 28.839843l.425781.34375c6.910156 6.226563 29.097656 29.097657 14.847656 54.441407-10.496093 18.601562-22.953125 60.246093 17.578125 62.464843 4.789063.265625 9.585938-.460937 14.082032-2.132812 3.714843 1.269531 7.59375 1.988281 11.519531 2.132812 16.367187.125 31.136719-9.800781 37.203125-25.003906 28.246094 38.828125 42.667968 82.089844 18.945312 123.648437zm0 0" fill="#ff9801"/><path d="m203.953125 456.398438c23.679687 15.976562 62.007813 15.472656 88.902344 5.523437 14.972656-5.109375 28-14.722656 37.300781-27.519531 30.035156-46.59375-59.5625-58.644532-75.863281-92.148438-1.996094-4.117187-3.246094-8.554687-3.695313-13.105468-.226562-2.667969-1.949218-11.054688.683594-13.425782-10.949219 9.957032-21.027344 20.832032-30.121094 32.503906l-.152344.207032c-3.046874 3.6875-4.464843 8.449218-3.929687 13.199218s2.976563 9.078126 6.761719 11.996094c8.980468 6.234375 23.429687 21.871094 2.960937 28.992188-14.527343 5.074218-30.472656-6.648438-30.421875-15.761719l-.394531-.046875c-4.386719.113281-9.117187 26.773438-9.433594 30.03125-1.4375 10.492188 1.097657 21.140625 7.105469 29.859375 2.84375 3.804687 6.328125 7.085937 10.296875 9.695313zm0 0" fill="#ffdc00"/></g><path d="m483.996094 213.761719h-5.546875l-9.214844-7.167969-208.726563-162.304688c-2.804687-1.59375-6.238281-1.59375-9.042968 0l-18.007813 13.996094-199.933593 155.476563h-5.546876c-4.511718.085937-8.921874-1.324219-12.546874-4.011719-4.34375-2.976562-6.925782-7.917969-6.890626-13.1875.03125-5.265625 2.679688-10.171875 7.0625-13.09375l213.761719-165.292969 1.789063-1.363281c14.894531-10.496094 34.773437-10.496094 49.664062 0l215.554688 166.65625c13.992187 10.238281 5.800781 30.292969-12.375 30.292969zm0 0" fill="#783e22"/><path d="m25.585938 213.761719c-8.449219-6.316407-20.136719-22.871094-9.984376-30.292969l213.761719-165.292969c6.246094 1.027344 12.175781 3.480469 17.320313 7.167969l215.554687 166.65625c4.839844 3.203125 7.53125 8.8125 6.996094 14.59375l-208.726563-162.304688c-2.804687-1.59375-6.238281-1.59375-9.042968 0l-18.007813 13.996094zm0 0" fill="#a0522d"/><path d="m452.253906 512.425781h-392.535156c-18.839844-.019531-34.113281-15.289062-34.132812-34.132812v-264.53125c0-4.714844 3.820312-8.535157 8.535156-8.535157 4.710937 0 8.53125 3.820313 8.53125 8.535157v264.53125c.011718 9.421875 7.644531 17.058593 17.066406 17.066406h392.535156c9.421875-.007813 17.054688-7.644531 17.066406-17.066406v-264.53125c0-4.714844 3.820313-8.535157 8.53125-8.535157 4.714844 0 8.535157 3.820313 8.535157 8.535157v264.53125c-.023438 18.84375-15.292969 34.113281-34.132813 34.132812zm0 0"/><path d="m483.996094 222.292969h-5.546875c-4.769531.023437-8.691407-3.761719-8.832031-8.53125-.066407-2.234375.769531-4.394531 2.320312-6.003907 1.550781-1.605468 3.683594-2.519531 5.914062-2.53125h6.144532c4.566406.382813 8.847656-2.265624 10.542968-6.523437 1.03125-3.191406-.304687-6.667969-3.207031-8.347656l-215.734375-166.796875c-11.867187-8.234375-27.617187-8.175782-39.421875.152344l-215.351562 166.507812c-3 1.667969-4.414063 5.210938-3.390625 8.484375 1.695312 4.257813 5.972656 6.90625 10.542968 6.523437h5.546876c4.769531-.023437 8.691406 3.765626 8.832031 8.535157.066406 2.230469-.769531 4.394531-2.320313 6-1.550781 1.605469-3.683594 2.519531-5.914062 2.53125h-6.144532c-11.945312.34375-22.75-7.039063-26.769531-18.292969-3.359375-10.203125.460938-21.398438 9.359375-27.417969l215.367188-166.519531c17.929687-12.703125 41.90625-12.761719 59.902344-.152344l215.753906 166.808594c8.792968 6.035156 12.535156 17.160156 9.175781 27.28125-4.019531 11.253906-14.828125 18.636719-26.769531 18.292969zm0 0"/><path d="m33.527344 222.292969c-3.648438.003906-6.894532-2.3125-8.082032-5.761719-1.183593-3.453125-.042968-7.273438 2.839844-9.511719l217.941406-169.472656c5.671876-3.855469 13.074219-4.019531 18.914063-.425781 3.9375 2.496094 5.140625 7.6875 2.710937 11.660156-2.433593 3.976562-7.605468 5.265625-11.621093 2.894531l-217.46875 168.828125c-1.496094 1.160156-3.339844 1.792969-5.234375 1.789063zm0 0"/><path d="m478.445312 222.292969c-1.894531.003906-3.738281-.628907-5.234374-1.789063l-217.941407-169.472656c-3.722656-2.894531-4.394531-8.253906-1.5-11.976562 2.894531-3.722657 8.253907-4.390626 11.976563-1.5l217.941406 169.472656c2.875 2.238281 4.011719 6.058594 2.828125 9.503906-1.183594 3.449219-4.425781 5.761719-8.070313 5.761719zm0 0"/><path d="m258.125 478.253906c-52.183594 0-104.160156-22.261718-131.027344-60.183594-21.757812-30.859374-21.734375-72.078124.058594-102.914062 7.902344-11.398438 16.449219-22.339844 25.601562-32.761719 9.730469-10.945312 18.667969-22.574219 26.742188-34.796875 10.023438-14.628906 15.777344-31.757812 16.617188-49.472656.160156-9.203125-1.050782-18.378906-3.597657-27.222656-.289062-.960938-.667969-2.4375-1.109375-4.164063-1.105468-6.488281-3.351562-12.726562-6.625-18.433593-3.984375-2.34375-5.378906-7.429688-3.144531-11.476563 2.230469-4.050781 7.28125-5.582031 11.386719-3.460937l.027344.011718.027343.015625c27.34375 14.546875 53.457031 31.285157 78.089844 50.058594.195313.148437.808594.648437.992187.808594 8.242188 7.457031 33.796876 34.171875 16.554688 64.941406-7.53125 13.347656-12.386719 31.875-7.117188 41.5 1.027344 1.863281 4.128907 7.527344 17.730469 8.269531 9.96875.136719 19.332031-4.769531 24.890625-13.046875 6.167969-7.621093 8.523438-17.636719 6.40625-27.207031-1.519531-4.007812.171875-8.519531 3.949219-10.542969 3.566406-1.9375 7.976563-1.375 10.941406 1.398438 55.007813 59.691406 69.296875 113.789062 42.46875 160.792969v.003906c-16.46875 27.011718-41.800781 47.46875-71.671875 57.878906-18.664062 6.714844-38.359375 10.101562-58.191406 10.003906zm-50.546875-317.160156c.125.476562.246094.945312.367187 1.425781.375 1.46875.691407 2.726563.957032 3.628907 3.027344 10.496093 4.46875 21.382812 4.277344 32.304687-.933594 20.78125-7.574219 40.90625-19.191407 58.160156-8.511719 12.925781-17.933593 25.222657-28.199219 36.800781-8.71875 9.921876-16.867187 20.332032-24.40625 31.175782-17.792968 24.980468-17.941406 58.457031-.371093 83.597656 32.929687 46.476562 108.9375 66.21875 169.4375 44.039062 26.097656-9.015624 48.261719-26.796874 62.722656-50.320312 20.382813-35.726562 11.578125-77.542969-26.144531-124.480469-1.855469 6.695313-4.917969 12.996094-9.039063 18.589844-8.890625 13.027344-23.839843 20.578125-39.601562 20-12.914063.523437-25.089844-6.035156-31.75-17.113281-9.292969-16.964844-1.925781-41.878906 7.203125-58.0625 11.058594-19.734375-7.25-38.609375-13.128906-43.921875-17.023438-12.929688-34.765626-24.886719-53.132813-35.824219zm0 0"/><path d="m251.597656 477.535156c-18.472656.5625-36.703125-4.328125-52.414062-14.0625-4.785156-3.164062-8.988282-7.136718-12.414063-11.738281-7.300781-10.382813-10.40625-23.140625-8.703125-35.71875.851563-8.761719 4.644532-37.398437 17.707032-37.730469.539062 0 1.078124.03125 1.613281.101563 4.3125.511719 7.550781 4.175781 7.527343 8.519531.992188 2.351562 2.765626 4.289062 5.023438 5.480469 4.113281 2.808593 9.28125 3.609375 14.054688 2.179687 3.976562-1.390625 4.730468-2.648437 4.738281-2.65625-1.894531-4.742187-5.328125-8.714844-9.75-11.273437-12.042969-8.410157-14.066407-22.847657-5.160157-36.792969.144532-.230469.453126-.65625.621094-.871094 9.386719-12.039062 19.78125-23.257812 31.066406-33.535156l.066407-.058594c3.199219-2.886718 8.046875-2.933594 11.304687-.113281 3.253906 2.824219 3.898438 7.628906 1.496094 11.207031.015625 1.921875.171875 3.839844.464844 5.738282.121094.890624.21875 1.648437.261718 2.207031.355469 3.507812 1.324219 6.929687 2.867188 10.101562 5.058594 10.402344 21.019531 19.539063 36.445312 28.382813 20.121094 11.523437 40.925782 23.441406 45.488282 42.164062 2.128906 10.46875-.261719 21.347656-6.578125 29.960938-10.25 14.402344-24.773438 25.210937-41.511719 30.894531-14.191406 5.066406-29.148438 7.640625-44.214844 7.613281zm-54.003906-73.03125c-1.28125 5.417969-2.332031 11.066406-2.546875 13.167969-1.238281 8.40625.726563 16.96875 5.5 23.992187 2.261719 3.007813 5.027344 5.597657 8.175781 7.660157 21.761719 14.675781 57.308594 13.421875 81.167969 4.589843 13.25-4.453124 24.804687-12.878906 33.089844-24.132812 3.707031-4.710938 5.28125-10.75 4.34375-16.671875-2.828125-11.605469-20.394531-21.664063-37.386719-31.402344-17.679688-10.125-35.957031-20.589843-43.320312-35.722656-1.574219-3.25-2.773438-6.671875-3.570313-10.195313-5.285156 5.628907-10.339844 11.527344-15.15625 17.691407-5.527344 8.703125-.734375 12.046875.839844 13.148437 3.140625 2.179688 18.78125 13.8125 16.875 27.703125-.707031 5.164063-4.050781 12.1875-15.992188 16.34375-10.332031 3.375-21.65625 1.53125-30.386719-4.9375-.558593-.398437-1.105468-.8125-1.632812-1.234375zm0 0"/></svg>