<svg id="Capa_1" enable-background="new 0 0 512 512" height="512" viewBox="0 0 512 512" width="512" xmlns="http://www.w3.org/2000/svg"><g><g><g><path d="m393.502 446.04-219.819-64.219 48.192-157.137 142.151-78.252 77.669 142.471z" fill="#c77e67"/></g></g><g><g><path d="m364.026 146.432-33.687 20.562 75.785 140.074-40.155 130.928 27.533 8.044 48.193-157.137z" fill="#be694e"/></g></g><g><g><path d="m457.909 290.843-83.98-153.299c-3.142-5.736-10.339-7.838-16.074-4.696l-153.299 83.98c-2.182 1.195-2.981 3.932-1.786 6.114l9.556 17.443c1.195 2.182 3.932 2.981 6.114 1.786l134.39-73.621c2.181-1.195 4.919-.395 6.114 1.786l73.622 134.391c1.195 2.181 3.932 2.981 6.114 1.786l17.443-9.556c2.181-1.195 2.981-3.932 1.786-6.114z" fill="#cba863"/></g></g><g><g><path d="m308.151 421.105-53.329-15.58 47.103-153.41 53.33 15.58z" fill="#934c35"/></g></g><g><g><path d="m328.373 259.842-45.923 149.566-26.448-7.726-1.18 3.844 53.329 15.579 47.103-153.41z" fill="#7b3f2c"/></g></g><g><g><path d="m504.5 469.914h-497v-85.686c0-14.514 11.766-26.281 26.281-26.281h444.439c14.514 0 26.28 11.766 26.28 26.281z" fill="#7fcb8f"/></g></g><g><g><path d="m478.22 357.947h-30c14.514 0 26.281 11.766 26.281 26.281v85.686h30v-85.686c-.001-14.514-11.767-26.281-26.281-26.281z" fill="#6dc17d"/></g></g><g><g><ellipse cx="111.138" cy="263.114" fill="#7fcb8f" rx="61.782" ry="61.783" transform="matrix(.802 -.598 .598 .802 -135.236 118.613)"/></g></g><g><g><path d="m133.335 205.457c-12.346-4.753-25.274-5.26-37.198-2.264 2.413.607 4.817 1.347 7.198 2.264 31.843 12.259 47.719 48.011 35.46 79.854-7.506 19.497-23.825 32.992-42.656 37.724 29.861 7.513 61.314-8.262 72.656-37.724 12.259-31.843-3.617-67.595-35.46-79.854z" fill="#6dc17d"/></g></g><g><path d="m77.289 83.941h95.53c13.607 0 24.678-11.07 24.678-24.677s-11.07-24.678-24.678-24.678c-4.142 0-7.5 3.358-7.5 7.5s3.358 7.5 7.5 7.5c5.336 0 9.678 4.341 9.678 9.678 0 5.336-4.341 9.677-9.678 9.677h-95.53c-4.142 0-7.5 3.358-7.5 7.5s3.357 7.5 7.5 7.5z"/><path d="m276.171 93.941h155.53c13.607 0 24.678-11.07 24.678-24.677s-11.07-24.678-24.678-24.678c-4.142 0-7.5 3.358-7.5 7.5s3.358 7.5 7.5 7.5c5.336 0 9.678 4.341 9.678 9.678 0 5.336-4.341 9.677-9.678 9.677h-155.53c-4.142 0-7.5 3.358-7.5 7.5s3.358 7.5 7.5 7.5z"/><path d="m223.998 107.447c5.336 0 9.678 4.341 9.678 9.677s-4.341 9.678-9.678 9.678h-102.153c-4.142 0-7.5 3.358-7.5 7.5s3.358 7.5 7.5 7.5h102.152c13.607 0 24.678-11.07 24.678-24.678 0-13.607-11.07-24.677-24.678-24.677-4.142 0-7.5 3.358-7.5 7.5s3.358 7.5 7.501 7.5z"/><path d="m18.467 141.802h53.378c4.142 0 7.5-3.358 7.5-7.5s-3.358-7.5-7.5-7.5h-53.378c-4.142 0-7.5 3.358-7.5 7.5s3.358 7.5 7.5 7.5z"/><path d="m478.22 350.447h-47.555l11.43-37.269c.062-.033.127-.054.189-.088l17.443-9.556c5.805-3.18 7.94-10.489 4.761-16.295l-45.371-82.821h76.427c4.142 0 7.5-3.358 7.5-7.5s-3.358-7.5-7.5-7.5h-84.414c-.076 0-.15.009-.226.011l-10.494-19.156h24.205c4.142 0 7.5-3.358 7.5-7.5s-3.358-7.5-7.5-7.5h-32.423l-11.686-21.332c-2.482-4.531-6.58-7.825-11.539-9.273s-10.185-.879-14.716 1.603l-71.566 39.206c-3.633 1.99-4.964 6.548-2.974 10.181 1.991 3.633 6.548 4.965 10.181 2.974l71.566-39.206c1.017-.557 2.189-.685 3.303-.36 1.113.325 2.033 1.064 2.59 2.082l13.792 25.175c.01.018.019.035.029.053l68.72 125.443-12.188 6.677-72.182-131.762c-1.541-2.813-4.083-4.856-7.162-5.756s-6.322-.546-9.134.995l-131.763 72.182-6.677-12.188 52.767-28.907c3.633-1.99 4.964-6.548 2.974-10.181-1.99-3.632-6.548-4.964-10.181-2.974l-55.396 30.347c-5.804 3.181-7.939 10.49-4.759 16.294l9.556 17.442c.463.844 1.025 1.61 1.656 2.305l-31.943 104.154h-34.322c-4.142 0-7.5 3.358-7.5 7.5s3.358 7.5 7.5 7.5h337.082c10.355 0 18.78 8.425 18.78 18.78v78.187h-482v-78.187c0-10.355 8.425-18.78 18.781-18.78h40.297c.014 0 .029.002.043.002.009 0 .017-.002.026-.002h36.991c4.142 0 7.5-3.358 7.5-7.5s-3.358-7.5-7.5-7.5h-26.092l7.889-20.492c6.017 1.644 12.104 2.444 18.124 2.444 27.836 0 54.151-16.901 64.735-44.393 13.726-35.652-4.113-75.823-39.765-89.548-35.649-13.726-75.823 4.114-89.548 39.765-6.649 17.271-6.175 36.097 1.336 53.01 6.421 14.459 17.337 26.026 31.158 33.237l-10.001 25.979h-35.193c-18.627-.002-33.781 15.152-33.781 33.779v85.687c0 4.142 3.358 7.5 7.5 7.5h497c4.142 0 7.5-3.358 7.5-7.5v-85.687c0-18.627-15.154-33.781-33.78-33.781zm-124.414-173.88 28.682 52.357-81.04-23.675zm-131.406 71.987 60.444-33.112 109.517 31.994c.101.03.203.041.305.066l33.323 60.829c.379.692.835 1.311 1.322 1.896l-12.335 40.22h-77.284l24.733-80.551c.589-1.918.385-3.993-.567-5.759-.952-1.767-2.573-3.078-4.499-3.641l-53.329-15.58c-3.936-1.15-8.068 1.077-9.272 4.998l-30.868 100.533h-72.74zm57.178 101.893 27.345-89.059 38.93 11.373-23.853 77.686zm-218.052-65.302c-5.884-13.252-6.256-28.001-1.047-41.533 8.293-21.542 28.909-34.782 50.72-34.782 6.472 0 13.049 1.166 19.44 3.626 27.933 10.754 41.909 42.228 31.156 70.161-9.898 25.709-37.348 39.577-63.433 33.242l13.085-33.99c.444-.106.885-.246 1.317-.438l20.204-8.972c3.786-1.681 5.492-6.113 3.811-9.898s-6.112-5.492-9.898-3.811l-7.88 3.499 4.711-12.238c1.488-3.866-.439-8.206-4.304-9.694-3.865-1.489-8.206.439-9.694 4.304l-14.296 37.135-2.958-6.66c-1.681-3.786-6.112-5.492-9.898-3.811s-5.492 6.113-3.811 9.898l8.43 18.984c.191.431.429.824.686 1.2l-3.464 8.999c-10.104-5.687-18.085-14.431-22.877-25.221z"/><path d="m456.067 223.563c-4.142 0-7.5 3.358-7.5 7.5s3.358 7.5 7.5 7.5h36.866c4.142 0 7.5-3.358 7.5-7.5s-3.358-7.5-7.5-7.5z"/></g></g></svg>